<?xml version="1.0" encoding="utf-8"?>
<!-- Generator: Adobe Illustrator 24.1.2, SVG Export Plug-In . SVG Version: 6.00 Build 0)  -->
<svg version="1.1" id="Layer_1" xmlns="http://www.w3.org/2000/svg" xmlns:xlink="http://www.w3.org/1999/xlink" x="0px" y="0px"
	 viewBox="0 0 114.9 84.4" style="enable-background:new 0 0 114.9 84.4;" xml:space="preserve">
<style type="text/css">
	.st0{fill:url(#SVGID_1_);}
	.st1{fill:#F3F3F3;}
	.st2{fill:#ED1C24;}
	.st3{fill:#703A1D;}
	.st4{fill:url(#SVGID_2_);}
</style>
<linearGradient id="SVGID_1_" gradientUnits="userSpaceOnUse" x1="0" y1="552.8734" x2="114.9028" y2="552.8734" gradientTransform="matrix(1 0 0 1 0 -510.68)">
	<stop  offset="0.22" style="stop-color:#151615"/>
	<stop  offset="0.66" style="stop-color:#323838"/>
	<stop  offset="0.72" style="stop-color:#282C2B"/>
	<stop  offset="0.78" style="stop-color:#1E2120"/>
	<stop  offset="0.84" style="stop-color:#171918"/>
	<stop  offset="0.9" style="stop-color:#151615"/>
</linearGradient>
<path class="st0" d="M114.2,56.6c-0.8-0.5-2.4-0.3-4.6,0.7c-3.7,1.7-7.7,2.6-11.7,2.6c-0.5,0-1-0.4-1-0.9
	c-0.6-6.8-3.5-41.3-0.4-56.5c0.1-0.6-0.3-1.3-0.9-1.4c0,0-0.1,0-0.1,0c-9.3-0.5-56.9-2.5-75,1.5c-0.6,0.1-1.1,0.8-0.9,1.4
	c3.2,15.6,4.6,31.6,4.2,47.6c0,0.2-0.1,0.3-0.2,0.5c-0.1,0.1-0.3,0.2-0.5,0.2c-0.3,0-0.8,0-1.4,0c-5.4,0-20.1,1.2-21.5,14
	c-0.3,2.8,0.6,5.5,2.5,7.6c5.4,5.9,20.2,14.8,59.1,8.6c0.3-0.1,33-6.1,52.3-22c0.7-0.6,1.1-1.5,1-2.5
	C114.9,57.4,114.7,56.9,114.2,56.6z"/>
<path class="st1" d="M51.2,40c3.2,3.4,15,16.8,22.3,22.7l-25.7,3.5L36.1,52.9c-0.3-0.4-0.3-0.9,0.1-1.3L49.6,40
	C50.1,39.5,50.8,39.6,51.2,40z"/>
<path class="st2" d="M55.3,56.3c-0.1-0.5-0.4-0.9-0.8-1.2c-1.3-0.8-1.9,1.5-1.9,1.6s-2.4,0.4-1.7,1.8c0.2,0.4,0.7,0.8,1.2,0.9
	c1,0.3,2,0.3,3,0l0,0C55.4,58.4,55.5,57.3,55.3,56.3z"/>
<path class="st2" d="M41.8,54.6c0-0.2-0.2-0.4-0.4-0.6c-0.6-0.4-0.9,0.7-0.9,0.7s-1.1,0.2-0.8,0.8c0.1,0.2,0.3,0.4,0.5,0.4
	c0.5,0.1,1,0.1,1.4,0l0,0C41.9,55.6,41.9,55.1,41.8,54.6z"/>
<path class="st2" d="M65.5,60c0,0.2,0.2,0.4,0.4,0.6c0.6,0.4,0.9-0.7,0.9-0.7s1.1-0.2,0.8-0.8c-0.1-0.2-0.3-0.4-0.5-0.4
	c-0.5-0.1-0.9-0.1-1.4,0l0,0C65.5,59,65.4,59.5,65.5,60z"/>
<path class="st2" d="M39,53.6l0.3,0.5L39,54.4L37.6,52l0.4-0.4l2.1,1.8l-0.3,0.3l-0.5-0.4L39,53.6z M38.2,52.3l0.6,0.9L39,53
	L38.2,52.3z"/>
<path class="st3" d="M96.6,50.4l-0.5,0.3C73.9,61.4,55.3,62,43.6,60.6C30.8,59.1,23.3,55,23.2,55l-0.6-0.3L21.9,68l0.2,0.1
	c9.9,5,20.9,7.5,32,7.5c7,0,13.9-1,20.7-2.9c8-2.2,15.6-5.6,22.5-10.2l0.2-0.1L96.6,50.4z"/>
<linearGradient id="SVGID_2_" gradientUnits="userSpaceOnUse" x1="22.3785" y1="574.1669" x2="97.1285" y2="574.1669" gradientTransform="matrix(1 0 0 1 0 -510.68)">
	<stop  offset="0" style="stop-color:#6E3618"/>
	<stop  offset="0.19" style="stop-color:#9A6622"/>
	<stop  offset="0.38" style="stop-color:#C79723"/>
	<stop  offset="0.51" style="stop-color:#E6BB1B"/>
	<stop  offset="0.59" style="stop-color:#F6CC12"/>
	<stop  offset="0.65" style="stop-color:#EFC516"/>
	<stop  offset="0.72" style="stop-color:#E0B41D"/>
	<stop  offset="0.79" style="stop-color:#C99A22"/>
	<stop  offset="0.87" style="stop-color:#AD7A23"/>
	<stop  offset="0.94" style="stop-color:#8D5720"/>
	<stop  offset="1" style="stop-color:#743D1A"/>
</linearGradient>
<path class="st4" d="M23.1,55.7c0,0,30.2,16.5,73.3-4.3l0.8,11.1c0,0-34.7,25.3-74.7,5.6L23.1,55.7z"/>
</svg>
