<?xml version="1.0" encoding="utf-8"?>
<!-- Generator: Adobe Illustrator 24.1.2, SVG Export Plug-In . SVG Version: 6.00 Build 0)  -->
<svg version="1.1" id="Capa_1" xmlns="http://www.w3.org/2000/svg" xmlns:xlink="http://www.w3.org/1999/xlink" x="0px" y="0px"
	 viewBox="0 0 512 512" style="enable-background:new 0 0 512 512;" xml:space="preserve">
<style type="text/css">
	.st0{fill:url(#SVGID_1_);}
	.st1{fill:#E09380;}
	.st2{fill:#D47F6C;}
	.st3{fill:#FFFFFF;}
	.st4{fill:#FAA68E;}
	.st5{fill:#232828;}
	.st6{fill:#7E8596;}
</style>
<g>
	<g>
		<g>
			<g>
				<g>
					<g>
						<g>
							<g>
								<g>
									<linearGradient id="SVGID_1_" gradientUnits="userSpaceOnUse" x1="0" y1="224.961" x2="512" y2="224.961">
										<stop  offset="0" style="stop-color:#A5E74A"/>
										<stop  offset="1" style="stop-color:#DFE7D4"/>
									</linearGradient>
									<path class="st0" d="M88.9,449.9C34.4,403,0,333.5,0,256C0,114.6,114.6,0,256,0s256,114.6,256,256
										c0,77.5-34.4,147-88.9,193.9L88.9,449.9z"/>
								</g>
							</g>
						</g>
					</g>
				</g>
			</g>
		</g>
	</g>
</g>
<g>
	<circle class="st1" cx="173" cy="202.2" r="20.9"/>
	<circle class="st2" cx="339" cy="202.2" r="20.9"/>
</g>
<g>
	<path class="st3" d="M197.3,328.9l-48.7,5.1c-12,1.7-22.5,6.6-30.4,13.5c0,0,0,0,0,0c-9.2,8.1-14.8,19-14.8,30.9v42.4
		c44,23.5,96.4,37.1,152.7,37.1s108.6-13.6,152.7-37.1v-42.4c0-11.9-5.6-22.8-14.8-30.9c0,0,0,0,0,0c-7.9-6.9-18.4-11.8-30.4-13.5
		l-48.7-5.1L256,349.8L197.3,328.9z"/>
</g>
<g>
	<path class="st3" d="M256,349.8v108.1c56.2,0,108.7-13.6,152.7-37.1v-42.4c0-11.9-5.6-22.8-14.8-30.9c0,0,0,0,0,0
		c-7.9-6.9-18.4-11.8-30.4-13.5l-48.7-5.1"/>
</g>
<g>
	<path class="st1" d="M197.3,328.9c14,16.8,35.1,27.6,58.7,27.6s44.7-10.7,58.7-27.6l-3.1-0.5c-11-1.9-19.1-11.4-19.1-22.6V255h-73
		v50.8c0,11.2-8.1,20.7-19.1,22.6L197.3,328.9z"/>
</g>
<g>
	<path class="st1" d="M314.7,328.9l-3.1-0.5c-11-1.9-19.1-11.4-19.1-22.6V255H256v101.5C279.6,356.4,300.7,345.7,314.7,328.9z"/>
</g>
<g>
	<path class="st4" d="M256,295.8c-44.6,0-84.4-36.2-84.4-80.8v-44.9c0-44.6,39.8-80.8,84.4-80.8c44.6,0,84.4,36.2,84.4,80.8V215
		C340.4,259.6,300.6,295.8,256,295.8z"/>
</g>
<g>
	<path class="st4" d="M256,89.3v206.5c44.6,0,84.4-36.2,84.4-80.8v-44.9C340.4,125.4,300.6,89.3,256,89.3L256,89.3z"/>
</g>
<path class="st5" d="M88.9,449.9C133.7,488.6,192.1,512,256,512s122.3-23.4,167.1-62.1v-81H88.9L88.9,449.9z"/>
<path class="st5" d="M256,512c63.9,0,122.3-23.4,167.1-62.1v-81H256L256,512z"/>
<circle class="st6" cx="256" cy="456.5" r="29.6"/>
<path class="st6" d="M256,427c16.3,0,29.6,13.2,29.6,29.6c0,16.3-13.2,29.6-29.6,29.6L256,427z"/>
<path class="st5" d="M355,137.2c0-38.9-31.5-70.4-70.4-70.4h-47.3C193,66.8,157,102.7,157,147v40.5c0,8.1,6.6,14.7,14.7,14.7v-25h36
	c24.9,0,77,1.9,101.2-35.8c2.8,12.3,12.8,33.1,26.7,33.1h4.7v27.7c8.1,0,14.7-6.6,14.7-14.7V137.2z"/>
<path class="st5" d="M284.6,66.8H256v107.1c20-4,40.3-12.9,52.9-32.6c2.8,12.3,12.8,33.1,26.7,33.1h4.7v27.7
	c8.1,0,14.7-6.6,14.7-14.7v-50.4C355,98.3,323.5,66.8,284.6,66.8L284.6,66.8z"/>
</svg>
